HIERARCHY
ROOT Hips
{
	OFFSET 0.000000 0.000000 0.000000
	CHANNELS 6 Xposition Yposition Zposition Xrotation Yrotation Zrotation
	JOINT LeftUpLeg_virtual
	{
		OFFSET 0.000000 0.000000 0.000000
		CHANNELS 3 Xrotation Yrotation Zrotation
		JOINT LeftUpLeg
		{
			OFFSET 10.205400 -3.823500 0.155100
			CHANNELS 3 Xrotation Yrotation Zrotation
			JOINT LeftLeg
			{
				OFFSET 0.708757 -12.982077 0.567790
				CHANNELS 3 Xrotation Yrotation Zrotation
				JOINT LeftFoot
				{
					OFFSET -0.708756 -10.717838 -2.184338
					CHANNELS 3 Xrotation Yrotation Zrotation
					JOINT LeftToeBase
					{
						OFFSET 0.108149 -7.191104 7.560241
						CHANNELS 3 Xrotation Yrotation Zrotation
						JOINT LeftToe_End
						{
							OFFSET 0.070230 0.081724 4.490308
							CHANNELS 3 Xrotation Yrotation Zrotation
							End Site
							{
								OFFSET 0 0 0
							}
						}
					}
				}
			}
		}
	}
	JOINT RightUpLeg_virtual
	{
		OFFSET 0.000000 0.000000 0.000000
		CHANNELS 3 Xrotation Yrotation Zrotation
		JOINT RightUpLeg
		{
			OFFSET -10.205400 -3.823500 0.005500
			CHANNELS 3 Xrotation Yrotation Zrotation
			JOINT RightLeg
			{
				OFFSET -0.708756 -12.982134 0.610632
				CHANNELS 3 Xrotation Yrotation Zrotation
				JOINT RightFoot
				{
					OFFSET 0.708754 -10.717769 -1.945823
					CHANNELS 3 Xrotation Yrotation Zrotation
					JOINT RightToeBase
					{
						OFFSET -0.108140 -7.191069 7.372968
						CHANNELS 3 Xrotation Yrotation Zrotation
						JOINT RightToe_End
						{
							OFFSET -0.070227 0.081735 4.479403
							CHANNELS 3 Xrotation Yrotation Zrotation
							End Site
							{
								OFFSET 0 0 0
							}
						}
					}
				}
			}
		}
	}
	JOINT Spine_virtual
	{
		OFFSET 0.000000 0.000000 0.000000
		CHANNELS 3 Xrotation Yrotation Zrotation
		JOINT Spine
		{
			OFFSET 0.000000 6.876099 0.125700
			CHANNELS 3 Xrotation Yrotation Zrotation
			JOINT Spine1
			{
				OFFSET 0.000000 5.730043 0.104720
				CHANNELS 3 Xrotation Yrotation Zrotation
				JOINT Spine1_split
				{
					OFFSET 0.000000 5.730043 0.104720
					CHANNELS 3 Xrotation Yrotation Zrotation
					JOINT Spine2
					{
						OFFSET 0.000000 5.730043 0.104720
						CHANNELS 3 Xrotation Yrotation Zrotation
						JOINT Neck_virtual
						{
							OFFSET 0.000000 0.000000 0.000000
							CHANNELS 3 Xrotation Yrotation Zrotation
							JOINT Neck
							{
								OFFSET 0.000000 10.314075 0.188496
								CHANNELS 3 Xrotation Yrotation Zrotation
								JOINT Head
								{
									OFFSET 0.000000 7.643700 -2.377400
									CHANNELS 3 Xrotation Yrotation Zrotation
									JOINT HeadTop_End
									{
										OFFSET 0.000000 43.788605 -13.619600
										CHANNELS 3 Xrotation Yrotation Zrotation
										End Site
										{
											OFFSET 0 0 0
										}
									}
								}
							}
						}
						JOINT LeftShoulder_virtual
						{
							OFFSET 0.000000 0.000000 0.000000
							CHANNELS 3 Xrotation Yrotation Zrotation
							JOINT LeftShoulder
							{
								OFFSET 2.196100 4.412489 0.087492
								CHANNELS 3 Xrotation Yrotation Zrotation
								JOINT LeftShoulder_split
								{
									OFFSET 2.196100 4.412489 0.087492
									CHANNELS 3 Xrotation Yrotation Zrotation
									JOINT LeftArm
									{
										OFFSET 8.771219 -2.981674 -0.026999
										CHANNELS 3 Xrotation Yrotation Zrotation
										JOINT LeftForeArm
										{
											OFFSET 8.512804 0.000000 -0.000000
											CHANNELS 3 Xrotation Yrotation Zrotation
											JOINT LeftHand
											{
												OFFSET 18.484802 0.000000 -0.000000
												CHANNELS 3 Xrotation Yrotation Zrotation
												End Site
												{
													OFFSET 0 0 0
												}
											}
										}
									}
								}
							}
						}
						JOINT RightShoulder_virtual
						{
							OFFSET 0.000000 0.000000 0.000000
							CHANNELS 3 Xrotation Yrotation Zrotation
							JOINT RightShoulder
							{
								OFFSET -2.196100 4.412496 0.070690
								CHANNELS 3 Xrotation Yrotation Zrotation
								JOINT RightShoulder_split
								{
									OFFSET -2.196100 4.412496 0.070690
									CHANNELS 3 Xrotation Yrotation Zrotation
									JOINT RightArm
									{
										OFFSET -8.771282 -2.981682 -0.094208
										CHANNELS 3 Xrotation Yrotation Zrotation
										JOINT RightForeArm
										{
											OFFSET -8.494598 0.000000 0.000000
											CHANNELS 3 Xrotation Yrotation Zrotation
											JOINT RightHand
											{
												OFFSET -18.483803 0.000000 0.000001
												CHANNELS 3 Xrotation Yrotation Zrotation
												End Site
												{
													OFFSET 0 0 0
												}
											}
										}
									}
								}
							}
						}
					}
				}
			}
		}
	}
}
MOTION
Frames: 4
Frame Time: 0.03333333
12.617514 8.595224 -4.575407 0.000000 0.000000 0.000000 -83.095883 59.502798 6.259897 -77.200488 -6.517339 -5.405287 80.270466 37.212855 -26.537459 14.696523 -15.330163 20.261669 17.790066 6.989213 1.788693 0.000000 0.000000 0.000000 -81.444057 62.832126 5.452754 -5.732602 2.953026 7.355467 54.160733 -9.129014 6.216758 5.426991 -21.130485 1.328049 -4.545464 -14.778390 -37.095440 0.000000 0.000000 0.000000 -81.781345 61.104662 -0.140495 22.101326 -4.715033 -7.473450 0.521371 -4.466402 -3.028611 0.175738 0.876517 -0.170848 0.000000 0.000000 0.000000 1.432601 -0.666515 -1.184510 4.391529 3.761416 -11.821775 12.358372 -37.925640 -13.398196 0.000000 0.000000 0.000000 2.192385 -1.475730 -1.708840 -4.948158 14.820648 11.972344 14.304312 -12.574593 1.498226 -93.799377 32.323768 -40.008151 -9.366781 -37.003103 -4.999923 0.000000 0.000000 0.000000 0.623431 -3.380553 -1.695445 -14.891440 10.438684 -2.720771 12.436592 -3.078671 7.471662 -57.597162 61.935486 120.313318 -71.796046 71.615244 57.587278 0.000000 0.000000 0.000000 
12.617867 8.571165 -4.660934 0.000000 0.000000 0.000000 -82.967428 59.545220 6.189349 -77.267171 -6.776310 -5.591599 80.466998 36.906483 -26.285824 14.787846 -15.341447 20.200076 17.589849 6.975747 1.773736 0.000000 0.000000 0.000000 -81.476411 62.779110 5.374576 -5.909005 3.240679 7.608307 54.466742 -9.279037 6.243161 5.256692 -21.128531 1.352939 -4.257437 -14.840280 -36.895145 0.000000 0.000000 0.000000 -81.941561 61.004347 -0.067961 22.001685 -4.763312 -7.449939 0.527777 -4.634604 -3.011762 0.177612 0.892211 -0.178805 0.000000 0.000000 0.000000 1.384724 -0.831877 -1.087992 4.248633 3.806175 -12.039802 13.501435 -37.777848 -12.778464 0.000000 0.000000 0.000000 2.095066 -1.584347 -1.669872 -4.916812 15.073241 11.560503 14.106013 -12.126868 1.687408 -93.476009 31.974192 -40.435912 -9.471958 -37.104514 -5.348243 0.000000 0.000000 0.000000 0.544515 -3.516503 -1.663623 -14.928285 10.649698 -2.675812 12.967386 -3.143471 7.714260 -58.854955 62.073429 121.210217 -71.931345 71.756151 57.780136 0.000000 0.000000 0.000000 
12.604873 8.523443 -4.726591 0.000000 0.000000 0.000000 -82.903361 59.528363 6.168750 -77.477704 -6.821252 -5.649687 80.958512 36.191284 -26.047119 14.933186 -15.436101 20.409432 17.277617 6.945324 1.793674 0.000000 0.000000 0.000000 -81.339377 62.690236 5.175338 -6.313172 3.538462 7.814154 54.753648 -9.166701 6.212705 5.563966 -20.874943 2.181324 -4.125431 -14.718813 -37.302904 0.000000 0.000000 0.000000 -82.101749 60.958209 0.043525 21.860229 -4.911744 -7.456699 0.525148 -4.870083 -2.937452 0.157846 0.909258 -0.199576 0.000000 0.000000 0.000000 1.284695 -1.092352 -0.951113 4.143617 3.990796 -12.481162 15.150808 -37.314963 -11.389948 0.000000 0.000000 0.000000 1.975625 -1.773185 -1.597392 -4.843106 15.300549 10.961917 13.916017 -11.865511 2.090690 -93.071655 31.478306 -40.834078 -9.543067 -36.831283 -5.827803 0.000000 0.000000 0.000000 0.491518 -3.730183 -1.586167 -14.910060 11.067676 -2.717561 13.470813 -3.321475 7.766297 -60.703299 62.530853 122.706958 -71.334229 71.957231 57.253251 0.000000 0.000000 0.000000 
12.572267 8.466316 -4.770130 0.000000 0.000000 0.000000 -82.972646 59.490859 6.273073 -77.761376 -6.599055 -5.556274 81.572826 35.222104 -25.839794 15.006414 -15.588954 20.935983 17.004714 6.893902 1.852266 0.000000 0.000000 0.000000 -81.126351 62.568235 4.926265 -6.845735 3.784548 7.930157 54.766287 -8.865637 6.064402 5.951708 -20.460098 3.446317 -3.819839 -14.523313 -38.183640 0.000000 0.000000 0.000000 -82.219912 61.003848 0.193130 21.705479 -5.149038 -7.511606 0.523445 -5.159195 -2.812753 0.137569 0.927020 -0.205408 0.000000 0.000000 0.000000 1.167103 -1.423488 -0.791906 4.073904 4.277444 -13.056440 17.006809 -36.573389 -9.450287 0.000000 0.000000 0.000000 1.872310 -2.037255 -1.496832 -4.712539 15.442043 10.198286 13.747993 -11.742157 2.564164 -92.575838 30.815484 -40.924851 -9.670514 -36.568543 -6.439831 0.000000 0.000000 0.000000 0.456901 -4.010171 -1.469712 -14.802514 11.618857 -2.841772 13.725829 -3.618767 7.713329 -62.559485 63.126705 124.371201 -70.614983 72.272581 56.632718 0.000000 0.000000 0.000000 
